<svg width="24" height="24" viewBox="0 0 24 24" fill="none" xmlns="http://www.w3.org/2000/svg">
<path d="M16.065 4.00072C18.005 4.00072 19.565 5.57072 19.565 7.50072C19.565 9.39072 18.065 10.9307 16.195 11.0007C16.1086 10.9907 16.0214 10.9907 15.935 11.0007M17.995 20.0007C18.715 19.8507 19.395 19.5607 19.955 19.1307C21.515 17.9607 21.515 16.0307 19.955 14.8607C19.405 14.4407 18.735 14.1607 18.025 14.0007M8.815 10.8707C8.715 10.8607 8.595 10.8607 8.485 10.8707C7.3372 10.8318 6.24964 10.3476 5.45263 9.52068C4.65562 8.6938 4.21174 7.58918 4.215 6.44072C4.215 3.99072 6.195 2.00072 8.655 2.00072C9.83124 1.97951 10.9677 2.42641 11.8144 3.24314C12.6612 4.05986 13.1488 5.17949 13.17 6.35572C13.1912 7.53196 12.7443 8.66845 11.9276 9.51517C11.1109 10.3619 9.99124 10.8495 8.815 10.8707ZM3.815 14.5607C1.395 16.1807 1.395 18.8207 3.815 20.4307C6.565 22.2707 11.075 22.2707 13.825 20.4307C16.245 18.8107 16.245 16.1707 13.825 14.5607C11.085 12.7307 6.575 12.7307 3.815 14.5607Z" stroke="black" stroke-width="1.5" stroke-linecap="round" stroke-linejoin="round"/>
</svg>
